<?xml version="1.0" standalone="no"?>
<!DOCTYPE svg PUBLIC "-//W3C//DTD SVG 20010904//EN"
 "http://www.w3.org/TR/2001/REC-SVG-20010904/DTD/svg10.dtd">
<svg version="1.0" xmlns="http://www.w3.org/2000/svg"
 width="1024.000000pt" height="1024.000000pt" viewBox="0 0 1024.000000 1024.000000"
 preserveAspectRatio="xMidYMid meet">
<metadata>
Created by potrace 1.16, written by Peter Selinger 2001-2019
</metadata>
<g transform="translate(0.000000,1024.000000) scale(0.100000,-0.100000)"
fill="#000000" stroke="none">
<path d="M4603 7951 c-40 -10 -104 -22 -144 -26 -41 -4 -94 -18 -123 -31 -28
-13 -61 -24 -73 -24 -12 0 -43 -11 -69 -25 -26 -14 -52 -25 -59 -25 -6 0 -26
-11 -45 -25 -19 -14 -40 -25 -48 -25 -8 0 -26 -9 -40 -21 -15 -11 -54 -38 -87
-58 -74 -47 -189 -153 -267 -246 -32 -38 -65 -77 -72 -85 -7 -8 -21 -29 -29
-46 -9 -17 -35 -59 -57 -93 -23 -34 -46 -77 -53 -94 -6 -18 -19 -45 -29 -62
-10 -16 -18 -39 -18 -50 0 -11 -9 -34 -19 -52 -11 -17 -25 -60 -31 -94 -7 -35
-18 -76 -27 -92 -8 -16 -19 -69 -24 -118 -5 -49 -17 -124 -26 -167 -15 -65
-18 -129 -18 -411 0 -221 3 -335 10 -338 6 -2 39 16 74 39 35 24 77 52 95 63
80 50 104 66 144 95 l42 32 0 112 c0 217 19 505 36 544 9 20 20 66 25 101 5
35 18 75 28 90 10 14 22 41 26 60 10 47 79 178 148 280 37 55 172 191 226 227
107 71 130 85 198 119 40 19 83 35 95 35 13 0 42 9 65 20 24 10 76 24 118 29
48 7 481 11 1211 11 1024 1 1139 -1 1161 -15 26 -17 27 -43 3 -56 -21 -10
-118 -55 -160 -73 -19 -9 -42 -20 -50 -26 -8 -5 -31 -16 -50 -25 -19 -8 -46
-21 -60 -29 -42 -22 -79 -41 -235 -120 -82 -42 -157 -80 -165 -85 -8 -5 -31
-16 -50 -25 -19 -9 -42 -20 -50 -26 -8 -5 -31 -16 -50 -25 -19 -8 -42 -19 -50
-25 -8 -5 -31 -17 -50 -25 -19 -9 -57 -29 -85 -45 -27 -15 -68 -38 -90 -49
-22 -12 -51 -27 -65 -35 -14 -7 -38 -20 -55 -29 -16 -9 -48 -25 -70 -35 -22
-11 -46 -26 -53 -35 -8 -9 -26 -18 -41 -22 -16 -3 -43 -17 -62 -31 -18 -13
-37 -24 -43 -24 -5 0 -17 -6 -25 -14 -9 -7 -56 -35 -106 -62 -49 -26 -106 -57
-126 -68 -135 -77 -189 -106 -197 -106 -5 0 -17 -9 -26 -19 -10 -11 -32 -25
-49 -32 -18 -7 -41 -20 -52 -29 -11 -10 -31 -21 -45 -25 -14 -4 -34 -15 -45
-25 -20 -18 -48 -34 -121 -70 -23 -11 -47 -27 -54 -35 -7 -8 -17 -15 -22 -15
-8 0 -100 -54 -191 -112 -23 -15 -53 -32 -66 -38 -13 -6 -37 -22 -53 -35 -16
-14 -36 -25 -43 -25 -7 0 -26 -10 -42 -23 -15 -12 -39 -28 -53 -35 -37 -19
-93 -53 -176 -109 -32 -22 -88 -56 -129 -79 -16 -9 -43 -27 -58 -40 -16 -13
-34 -24 -41 -24 -7 0 -21 -9 -31 -20 -10 -11 -24 -20 -30 -20 -7 0 -29 -13
-50 -30 -21 -16 -43 -30 -49 -30 -7 0 -22 -9 -34 -20 -12 -11 -32 -25 -44 -30
-21 -10 -42 -23 -123 -81 -33 -23 -140 -93 -190 -124 -18 -11 -46 -29 -61 -39
-16 -11 -51 -34 -79 -53 -27 -18 -68 -46 -90 -62 -22 -17 -56 -39 -76 -50 -19
-11 -41 -27 -48 -35 -8 -9 -19 -16 -26 -16 -7 0 -30 -14 -51 -31 -38 -30 -75
-56 -199 -138 -71 -47 -114 -77 -159 -111 -19 -14 -47 -33 -63 -42 -15 -10
-59 -41 -98 -68 -38 -28 -84 -61 -102 -73 -70 -49 -334 -239 -393 -282 -19
-14 -64 -48 -99 -75 -35 -28 -67 -50 -71 -50 -4 0 -19 -10 -33 -22 -14 -13
-60 -48 -102 -78 -42 -30 -105 -77 -140 -105 -35 -27 -80 -61 -100 -75 -30
-21 -121 -91 -187 -145 -9 -8 -29 -22 -44 -32 -16 -10 -39 -28 -52 -39 -38
-34 -52 -45 -133 -106 -66 -49 -147 -114 -241 -191 -14 -12 -60 -49 -102 -82
-42 -33 -76 -65 -76 -72 0 -10 62 -13 285 -13 258 0 287 2 303 17 9 10 60 51
112 91 52 40 127 98 165 128 39 31 84 65 101 77 26 18 192 147 294 228 14 11
61 46 105 79 44 32 96 70 115 85 19 14 53 39 75 55 22 17 46 35 54 42 13 12
50 38 171 123 78 55 166 119 215 156 55 41 111 80 150 104 69 43 114 75 120
85 4 6 17 16 28 21 12 5 40 23 62 40 45 33 100 72 155 109 21 14 70 48 110 75
40 28 86 59 104 69 17 11 56 39 87 62 31 23 85 59 120 80 35 22 75 47 89 57
39 28 161 107 189 123 14 8 46 30 71 49 25 19 59 41 75 50 17 8 49 27 71 43
23 15 54 36 70 46 16 11 45 29 64 41 19 12 54 34 78 48 23 15 59 38 80 51 20
13 59 36 85 52 27 16 61 39 77 52 15 12 32 22 37 22 5 0 47 25 93 55 47 30 89
55 94 55 5 0 17 7 27 16 16 14 129 83 205 124 17 9 44 26 59 38 15 12 32 22
37 22 6 0 24 10 41 22 37 27 78 50 127 74 19 9 48 27 63 40 16 13 32 24 37 24
4 0 37 18 71 40 35 22 78 47 94 56 17 9 57 31 90 49 33 19 78 43 100 53 22 11
46 27 54 36 7 9 22 16 31 16 10 0 31 11 47 24 15 13 39 27 52 31 12 4 39 18
58 31 20 13 41 24 48 24 6 0 20 9 29 19 10 11 29 22 44 26 14 3 39 17 55 31
16 13 35 24 43 24 8 0 32 11 52 25 20 14 41 25 47 25 6 0 26 11 45 25 19 14
42 25 51 25 10 0 31 11 47 25 17 14 37 25 45 25 8 0 25 8 38 18 13 10 63 37
111 60 48 24 90 47 93 52 3 4 22 14 43 21 20 6 47 20 60 30 13 10 36 20 51 24
16 3 37 15 47 26 9 10 22 19 27 19 8 0 233 109 287 139 51 29 142 71 154 71 7
0 24 9 37 19 14 10 43 24 67 31 23 7 49 21 58 32 10 10 24 18 32 18 8 0 35 11
61 24 25 14 78 39 116 56 158 71 185 84 233 109 9 6 53 26 97 45 l80 35 3 202
c1 117 -2 205 -7 208 -5 3 -713 7 -1573 8 -1499 2 -1566 2 -1635 -16z"/>
<path d="M3520 4870 c-6 -11 -21 -22 -35 -26 -13 -3 -31 -14 -41 -25 -9 -10
-23 -19 -31 -19 -7 0 -27 -13 -45 -30 -17 -16 -38 -30 -47 -30 -9 0 -28 -13
-44 -29 l-27 -29 0 -490 c0 -270 3 -497 6 -506 5 -14 28 -16 155 -16 l149 0 0
610 c0 529 -2 610 -15 610 -8 0 -19 -9 -25 -20z"/>
<path d="M4220 3690 c0 -5 5 -10 10 -10 6 0 10 5 10 10 0 6 -4 10 -10 10 -5 0
-10 -4 -10 -10z"/>
<path d="M4100 3629 c-31 -17 -55 -19 -247 -19 l-211 0 -4 -142 c-2 -81 1
-149 6 -156 8 -11 52 -13 215 -10 l206 3 40 28 c22 16 52 31 68 34 23 5 26 9
21 27 -3 11 -18 31 -33 43 l-26 22 22 22 23 23 -26 27 -26 27 21 43 c12 23 21
44 21 46 0 9 -40 -1 -70 -18z m-2 -71 c-3 -7 -11 -13 -18 -13 -7 0 -15 6 -17
13 -3 7 4 12 17 12 13 0 20 -5 18 -12z"/>
</g>
</svg>
